<mxfile host="Electron" modified="2024-04-04T13:37:10.332Z" agent="Mozilla/5.0 (Macintosh; Intel Mac OS X 10_15_7) AppleWebKit/537.36 (KHTML, like Gecko) draw.io/21.6.1 Chrome/112.0.5615.204 Electron/24.6.1 Safari/537.36" etag="K31yZmfw10IzNkoW6nWC" version="21.6.1" type="device">
  <diagram name="Page-1" id="c4acf3e9-155e-7222-9cf6-157b1a14988f">
    <mxGraphModel dx="2171" dy="1225" grid="1" gridSize="10" guides="1" tooltips="1" connect="1" arrows="1" fold="1" page="1" pageScale="1" pageWidth="850" pageHeight="1100" background="none" math="0" shadow="0">
      <root>
        <mxCell id="0" />
        <mxCell id="1" parent="0" />
        <mxCell id="EyZXePn8tBVi2GeYpK-8-29" value="" style="group" vertex="1" connectable="0" parent="1">
          <mxGeometry x="10" y="180" width="830" height="660" as="geometry" />
        </mxCell>
        <mxCell id="EyZXePn8tBVi2GeYpK-8-1" value="Workspace" style="swimlane;fontStyle=0;childLayout=stackLayout;horizontal=1;startSize=30;horizontalStack=0;resizeParent=1;resizeParentMax=0;resizeLast=0;collapsible=1;marginBottom=0;whiteSpace=wrap;html=1;" vertex="1" parent="EyZXePn8tBVi2GeYpK-8-29">
          <mxGeometry x="330" y="260" width="200" height="160" as="geometry" />
        </mxCell>
        <mxCell id="EyZXePn8tBVi2GeYpK-8-2" value="id&lt;br/&gt;name&lt;br/&gt;description&lt;br/&gt;created_at&lt;br/&gt;owner&lt;br/&gt;external_link&lt;br/&gt;is_private&lt;br/&gt;logo" style="text;strokeColor=none;fillColor=none;align=left;verticalAlign=middle;spacingLeft=4;spacingRight=4;overflow=hidden;points=[[0,0.5],[1,0.5]];portConstraint=eastwest;rotatable=0;whiteSpace=wrap;html=1;" vertex="1" parent="EyZXePn8tBVi2GeYpK-8-1">
          <mxGeometry y="30" width="200" height="130" as="geometry" />
        </mxCell>
        <mxCell id="EyZXePn8tBVi2GeYpK-8-5" value="Channel" style="swimlane;fontStyle=0;childLayout=stackLayout;horizontal=1;startSize=30;horizontalStack=0;resizeParent=1;resizeParentMax=0;resizeLast=0;collapsible=1;marginBottom=0;whiteSpace=wrap;html=1;" vertex="1" parent="EyZXePn8tBVi2GeYpK-8-29">
          <mxGeometry x="630" y="260" width="200" height="160" as="geometry" />
        </mxCell>
        <mxCell id="EyZXePn8tBVi2GeYpK-8-6" value="id&lt;br/&gt;name&lt;br/&gt;description&lt;br/&gt;created_at&lt;br/&gt;creator&lt;br/&gt;external_link&lt;br/&gt;is_private&lt;br/&gt;logo" style="text;strokeColor=none;fillColor=none;align=left;verticalAlign=middle;spacingLeft=4;spacingRight=4;overflow=hidden;points=[[0,0.5],[1,0.5]];portConstraint=eastwest;rotatable=0;whiteSpace=wrap;html=1;" vertex="1" parent="EyZXePn8tBVi2GeYpK-8-5">
          <mxGeometry y="30" width="200" height="130" as="geometry" />
        </mxCell>
        <mxCell id="EyZXePn8tBVi2GeYpK-8-7" value="User" style="swimlane;fontStyle=0;childLayout=stackLayout;horizontal=1;startSize=30;horizontalStack=0;resizeParent=1;resizeParentMax=0;resizeLast=0;collapsible=1;marginBottom=0;whiteSpace=wrap;html=1;" vertex="1" parent="EyZXePn8tBVi2GeYpK-8-29">
          <mxGeometry x="330" width="200" height="200" as="geometry" />
        </mxCell>
        <mxCell id="EyZXePn8tBVi2GeYpK-8-8" value="id&lt;br/&gt;firstname&lt;br/&gt;lastname&lt;br/&gt;email&lt;br/&gt;password&lt;br/&gt;date_of_birth&lt;br/&gt;profile_picture&lt;br/&gt;created_at&lt;br/&gt;updated_at&lt;br/&gt;is_active" style="text;strokeColor=none;fillColor=none;align=left;verticalAlign=middle;spacingLeft=4;spacingRight=4;overflow=hidden;points=[[0,0.5],[1,0.5]];portConstraint=eastwest;rotatable=0;whiteSpace=wrap;html=1;" vertex="1" parent="EyZXePn8tBVi2GeYpK-8-7">
          <mxGeometry y="30" width="200" height="170" as="geometry" />
        </mxCell>
        <mxCell id="EyZXePn8tBVi2GeYpK-8-9" value="Role" style="swimlane;fontStyle=0;childLayout=stackLayout;horizontal=1;startSize=30;horizontalStack=0;resizeParent=1;resizeParentMax=0;resizeLast=0;collapsible=1;marginBottom=0;whiteSpace=wrap;html=1;" vertex="1" parent="EyZXePn8tBVi2GeYpK-8-29">
          <mxGeometry width="200" height="80" as="geometry" />
        </mxCell>
        <mxCell id="EyZXePn8tBVi2GeYpK-8-10" value="id&lt;br/&gt;name&lt;br/&gt;description" style="text;strokeColor=none;fillColor=none;align=left;verticalAlign=middle;spacingLeft=4;spacingRight=4;overflow=hidden;points=[[0,0.5],[1,0.5]];portConstraint=eastwest;rotatable=0;whiteSpace=wrap;html=1;" vertex="1" parent="EyZXePn8tBVi2GeYpK-8-9">
          <mxGeometry y="30" width="200" height="50" as="geometry" />
        </mxCell>
        <mxCell id="EyZXePn8tBVi2GeYpK-8-11" value="Message" style="swimlane;fontStyle=0;childLayout=stackLayout;horizontal=1;startSize=30;horizontalStack=0;resizeParent=1;resizeParentMax=0;resizeLast=0;collapsible=1;marginBottom=0;whiteSpace=wrap;html=1;" vertex="1" parent="EyZXePn8tBVi2GeYpK-8-29">
          <mxGeometry x="630" width="200" height="110" as="geometry" />
        </mxCell>
        <mxCell id="EyZXePn8tBVi2GeYpK-8-12" value="id&lt;br/&gt;message&lt;br/&gt;author&lt;br/&gt;created_at&lt;br/&gt;updated_at" style="text;strokeColor=none;fillColor=none;align=left;verticalAlign=middle;spacingLeft=4;spacingRight=4;overflow=hidden;points=[[0,0.5],[1,0.5]];portConstraint=eastwest;rotatable=0;whiteSpace=wrap;html=1;" vertex="1" parent="EyZXePn8tBVi2GeYpK-8-11">
          <mxGeometry y="30" width="200" height="80" as="geometry" />
        </mxCell>
        <mxCell id="EyZXePn8tBVi2GeYpK-8-13" value="Task" style="swimlane;fontStyle=0;childLayout=stackLayout;horizontal=1;startSize=30;horizontalStack=0;resizeParent=1;resizeParentMax=0;resizeLast=0;collapsible=1;marginBottom=0;whiteSpace=wrap;html=1;" vertex="1" parent="EyZXePn8tBVi2GeYpK-8-29">
          <mxGeometry x="630" y="500" width="200" height="160" as="geometry" />
        </mxCell>
        <mxCell id="EyZXePn8tBVi2GeYpK-8-14" value="id&lt;br/&gt;title&lt;br/&gt;description&lt;br/&gt;status&lt;br/&gt;assignee&lt;br/&gt;created_at&lt;br/&gt;updated_at&lt;br/&gt;due_date" style="text;strokeColor=none;fillColor=none;align=left;verticalAlign=middle;spacingLeft=4;spacingRight=4;overflow=hidden;points=[[0,0.5],[1,0.5]];portConstraint=eastwest;rotatable=0;whiteSpace=wrap;html=1;" vertex="1" parent="EyZXePn8tBVi2GeYpK-8-13">
          <mxGeometry y="30" width="200" height="130" as="geometry" />
        </mxCell>
        <mxCell id="EyZXePn8tBVi2GeYpK-8-15" value="Task_Comment" style="swimlane;fontStyle=0;childLayout=stackLayout;horizontal=1;startSize=30;horizontalStack=0;resizeParent=1;resizeParentMax=0;resizeLast=0;collapsible=1;marginBottom=0;whiteSpace=wrap;html=1;" vertex="1" parent="EyZXePn8tBVi2GeYpK-8-29">
          <mxGeometry x="330" y="500" width="200" height="120" as="geometry" />
        </mxCell>
        <mxCell id="EyZXePn8tBVi2GeYpK-8-16" value="id&lt;br/&gt;comment&lt;br/&gt;author&lt;br/&gt;created_at&lt;br/&gt;updated_at" style="text;strokeColor=none;fillColor=none;align=left;verticalAlign=middle;spacingLeft=4;spacingRight=4;overflow=hidden;points=[[0,0.5],[1,0.5]];portConstraint=eastwest;rotatable=0;whiteSpace=wrap;html=1;" vertex="1" parent="EyZXePn8tBVi2GeYpK-8-15">
          <mxGeometry y="30" width="200" height="90" as="geometry" />
        </mxCell>
        <mxCell id="EyZXePn8tBVi2GeYpK-8-18" value="" style="fontSize=12;html=1;endArrow=ERoneToMany;startArrow=ERmandOne;rounded=0;entryX=0.504;entryY=0.999;entryDx=0;entryDy=0;entryPerimeter=0;" edge="1" parent="EyZXePn8tBVi2GeYpK-8-29">
          <mxGeometry width="100" height="100" relative="1" as="geometry">
            <mxPoint x="430" y="260" as="sourcePoint" />
            <mxPoint x="429.80000000000007" y="199.82999999999998" as="targetPoint" />
          </mxGeometry>
        </mxCell>
        <mxCell id="EyZXePn8tBVi2GeYpK-8-20" value="" style="fontSize=12;html=1;endArrow=ERoneToMany;startArrow=ERmandOne;rounded=0;entryX=-0.002;entryY=0.388;entryDx=0;entryDy=0;entryPerimeter=0;" edge="1" parent="EyZXePn8tBVi2GeYpK-8-29" target="EyZXePn8tBVi2GeYpK-8-6">
          <mxGeometry width="100" height="100" relative="1" as="geometry">
            <mxPoint x="530" y="340" as="sourcePoint" />
            <mxPoint x="439.80000000000007" y="209.82999999999998" as="targetPoint" />
          </mxGeometry>
        </mxCell>
        <mxCell id="EyZXePn8tBVi2GeYpK-8-21" value="" style="fontSize=12;html=1;endArrow=ERoneToMany;startArrow=ERmandOne;rounded=0;entryX=1;entryY=0.5;entryDx=0;entryDy=0;exitX=0;exitY=0.152;exitDx=0;exitDy=0;exitPerimeter=0;" edge="1" parent="EyZXePn8tBVi2GeYpK-8-29" source="EyZXePn8tBVi2GeYpK-8-8" target="EyZXePn8tBVi2GeYpK-8-10">
          <mxGeometry width="100" height="100" relative="1" as="geometry">
            <mxPoint x="260.2" y="100.16999999999999" as="sourcePoint" />
            <mxPoint x="260.00000000000006" y="39.99999999999997" as="targetPoint" />
          </mxGeometry>
        </mxCell>
        <mxCell id="EyZXePn8tBVi2GeYpK-8-22" value="" style="fontSize=12;html=1;endArrow=ERzeroToMany;startArrow=ERmandOne;rounded=0;exitX=0.497;exitY=1.003;exitDx=0;exitDy=0;exitPerimeter=0;entryX=0.5;entryY=0;entryDx=0;entryDy=0;" edge="1" parent="EyZXePn8tBVi2GeYpK-8-29" source="EyZXePn8tBVi2GeYpK-8-6" target="EyZXePn8tBVi2GeYpK-8-13">
          <mxGeometry width="100" height="100" relative="1" as="geometry">
            <mxPoint x="580" y="540" as="sourcePoint" />
            <mxPoint x="680" y="440" as="targetPoint" />
          </mxGeometry>
        </mxCell>
        <mxCell id="EyZXePn8tBVi2GeYpK-8-24" value="" style="fontSize=12;html=1;endArrow=ERzeroToMany;startArrow=ERmandOne;rounded=0;" edge="1" parent="EyZXePn8tBVi2GeYpK-8-29">
          <mxGeometry width="100" height="100" relative="1" as="geometry">
            <mxPoint x="730" y="260" as="sourcePoint" />
            <mxPoint x="730" y="110" as="targetPoint" />
          </mxGeometry>
        </mxCell>
        <mxCell id="EyZXePn8tBVi2GeYpK-8-26" value="" style="fontSize=12;html=1;endArrow=ERzeroToMany;startArrow=ERmandOne;rounded=0;entryX=0;entryY=0.5;entryDx=0;entryDy=0;exitX=1;exitY=0.235;exitDx=0;exitDy=0;exitPerimeter=0;" edge="1" parent="EyZXePn8tBVi2GeYpK-8-29" source="EyZXePn8tBVi2GeYpK-8-8" target="EyZXePn8tBVi2GeYpK-8-12">
          <mxGeometry width="100" height="100" relative="1" as="geometry">
            <mxPoint x="740" y="270" as="sourcePoint" />
            <mxPoint x="740" y="120" as="targetPoint" />
          </mxGeometry>
        </mxCell>
        <mxCell id="EyZXePn8tBVi2GeYpK-8-27" value="" style="edgeStyle=entityRelationEdgeStyle;fontSize=12;html=1;endArrow=ERoneToMany;startArrow=ERoneToMany;rounded=0;exitX=1.003;exitY=0.599;exitDx=0;exitDy=0;exitPerimeter=0;entryX=-0.011;entryY=0.205;entryDx=0;entryDy=0;entryPerimeter=0;" edge="1" parent="EyZXePn8tBVi2GeYpK-8-29" source="EyZXePn8tBVi2GeYpK-8-8" target="EyZXePn8tBVi2GeYpK-8-5">
          <mxGeometry width="100" height="100" relative="1" as="geometry">
            <mxPoint x="540" y="240" as="sourcePoint" />
            <mxPoint x="640" y="140" as="targetPoint" />
          </mxGeometry>
        </mxCell>
        <mxCell id="EyZXePn8tBVi2GeYpK-8-28" value="" style="fontSize=12;html=1;endArrow=ERzeroToMany;startArrow=ERmandOne;rounded=0;entryX=1.003;entryY=0.544;entryDx=0;entryDy=0;entryPerimeter=0;" edge="1" parent="EyZXePn8tBVi2GeYpK-8-29">
          <mxGeometry width="100" height="100" relative="1" as="geometry">
            <mxPoint x="630" y="580" as="sourcePoint" />
            <mxPoint x="530.6000000000001" y="579.96" as="targetPoint" />
          </mxGeometry>
        </mxCell>
      </root>
    </mxGraphModel>
  </diagram>
</mxfile>
